<?xml version="1.0" encoding="utf-8"?>
<!-- Generator: Adobe Illustrator 19.2.0, SVG Export Plug-In . SVG Version: 6.00 Build 0)  -->
<svg version="1.1" id="Layer_1" xmlns="http://www.w3.org/2000/svg" xmlns:xlink="http://www.w3.org/1999/xlink" x="0px" y="0px"
	 viewBox="0 0 519.7 100" enable-background="new 0 0 519.7 100" xml:space="preserve">
<g id="Layer_4">
	<g>
		<path fill="#EAAA28" d="M60.7,38.2c0-3.1-1.6-7-5.1-9.7c-0.7-0.5-1-1.3-1.2-2.2c0-8.7-0.1-22.4-0.1-23.3c-0.7-0.3-3.2-0.3-4.2-0.3
			l0,0c0,0-0.1,0-0.2,0c-0.1,0-0.2,0-0.2,0l0,0c-0.9,0-3.5,0.1-4.2,0.3c0,0.9,0,14.6,0,23.3c-0.2,0.8-0.6,1.6-1.3,2.2
			c-3.5,2.7-5.1,6.6-5.1,9.7c0,6-0.4,52.2-0.3,54.4c0,2.7,0.6,4.3,10.7,4.6v0c0.1,0,0.2,0,0.3,0c0.1,0,0.2,0,0.3,0v0
			C60.4,97,61,95.3,61,92.6C61.1,90.4,60.7,44.2,60.7,38.2z M44.3,38.3c0.1,3.3,0.2,54,0.2,55.8c-4.3,0-3.6-2.1-3.6-2.1
			s0.6-50,0.6-53.6c0-3.6,5.6-8.1,5.6-8.1S44.2,35,44.3,38.3z"/>
	</g>
</g>
<g>
	<path fill="#EAAA28" d="M106.3,45.7H92.7V81h-8.2V45.7H70.8v-7.3h35.5V45.7z"/>
	<path fill="#EAAA28" d="M116.4,38.4l10.5,20.5l10.7-20.5h8.9L131,66.1V81h-8.2V66l-15.4-27.6H116.4z"/>
	<path fill="#EAAA28" d="M175.4,49.6c-0.3-0.3-0.8-0.7-1.5-1.1c-0.7-0.5-1.6-0.9-2.7-1.4c-1.1-0.5-2.2-0.8-3.5-1.2
		c-1.2-0.3-2.5-0.5-3.8-0.5c-2.3,0-4,0.4-5.1,1.3c-1.1,0.8-1.7,2-1.7,3.5c0,0.9,0.2,1.6,0.6,2.2s1,1.1,1.8,1.5
		c0.8,0.4,1.8,0.8,3,1.2c1.2,0.4,2.6,0.7,4.2,1.1c2.1,0.6,4,1.2,5.7,1.8s3.1,1.4,4.3,2.4c1.2,1,2.1,2.1,2.7,3.5c0.6,1.3,1,3,1,5
		c0,2.3-0.4,4.2-1.3,5.8c-0.9,1.6-2,2.9-3.5,3.9c-1.5,1-3.1,1.7-5,2.2c-1.9,0.5-3.9,0.7-6,0.7c-3.2,0-6.4-0.5-9.5-1.4
		s-5.9-2.3-8.4-4.1l3.7-7.1c0.4,0.4,1,0.8,1.9,1.4c0.9,0.6,2,1.2,3.3,1.7c1.3,0.6,2.7,1.1,4.3,1.5c1.6,0.4,3.2,0.6,4.8,0.6
		c4.6,0,6.8-1.5,6.8-4.4c0-0.9-0.3-1.7-0.8-2.3c-0.5-0.6-1.3-1.2-2.2-1.7c-1-0.5-2.1-0.9-3.5-1.3c-1.4-0.4-2.9-0.8-4.6-1.3
		c-2-0.6-3.8-1.2-5.3-1.8s-2.8-1.4-3.8-2.3c-1-0.9-1.8-1.9-2.3-3.1c-0.5-1.2-0.8-2.6-0.8-4.2c0-2.2,0.4-4.1,1.2-5.8
		c0.8-1.7,1.9-3.1,3.3-4.2c1.4-1.1,3.1-2,5-2.5c1.9-0.6,3.9-0.9,6.1-0.9c3,0,5.8,0.5,8.3,1.4c2.5,0.9,4.7,2.1,6.6,3.3L175.4,49.6z"
		/>
	<path fill="#EAAA28" d="M186.8,81V38.5h8.3v20.2L213,38.4h9.1l-16.3,18.9L223.1,81h-9.3l-13.3-18.4l-5.5,5.7V81H186.8z"/>
	<path fill="#EAAA28" d="M256.5,73.8V81H227V38.4h29v7.3h-20.8v10.3h17.9v6.7h-17.9v11.1H256.5z"/>
	<path fill="#EAAA28" d="M271.3,53.7V81H263V38.4h6.4l22.2,28V38.5h8.3V81h-6.7L271.3,53.7z"/>
	<path fill="#EAAA28" d="M344.6,38.4V81h-8.2V62.8h-19.3V81h-8.3V38.4h8.3v17.2h19.3V38.4H344.6z"/>
	<path fill="#EAAA28" d="M365.6,38.4h7.3L389.1,81h-8.5l-4-10.6h-14.9L357.9,81h-8.5L365.6,38.4z M375.2,64.6l-5.9-16.7l-6.1,16.7
		H375.2z"/>
	<path fill="#EAAA28" d="M394.5,38.4l11.5,32.2l11.4-32.2h8.7L409.5,81h-7l-16.7-42.6H394.5z"/>
	<path fill="#EAAA28" d="M439,53.7V81h-8.3V38.4h6.4l22.2,28V38.5h8.3V81h-6.7L439,53.7z"/>
</g>
</svg>
