<?xml version="1.0" encoding="utf-8"?>
<!-- Generator: Adobe Illustrator 19.1.0, SVG Export Plug-In . SVG Version: 6.00 Build 0)  -->
<svg version="1.1" xmlns="http://www.w3.org/2000/svg" xmlns:xlink="http://www.w3.org/1999/xlink" x="0px" y="0px"
	 viewBox="0 0 497.3 497.3" style="enable-background:new 0 0 497.3 497.3;" xml:space="preserve">
<style type="text/css">
	.st0{display:none;}
	.st1{display:inline;fill:#C5B087;}
	.st2{fill:#C5B087;}
	.st3{display:inline;}
</style>
<g id="Layer_1" class="st0">
	<path class="st1" d="M272.9,73.5L64.1,286.2l36.1,141.1h311.2v-317L272.9,73.5z M259.9,315.9c-2.8-6.7-2.9-14.9-0.4-24.6
		c0.7-2.9,1.7-6.5,3-10.6c1.3-4.1,2.2-8.4,2.8-13c0.6-4.5,0.5-9-0.4-13.4c-0.8-4.4-2.9-8.3-6.3-11.8c-2.5-2.6-5.2-4.3-8.1-5.3
		c-2.9-1-5.8-1.3-8.7-1.1c-2.9,0.2-5.7,1.1-8.5,2.6c-2.8,1.5-5.2,3.3-7.4,5.5c-2.6,2.7-4.6,5.6-5.9,8.7s-2.1,6.3-2.4,9.5
		c-0.4,3.2-0.4,6.4,0,9.6c0.4,3.2,0.8,6.1,1.4,8.6l-26.5,5c-2.2-5.4-3.4-10.9-3.7-16.4c-0.3-5.6,0.2-11.1,1.5-16.4
		c1.3-5.4,3.4-10.6,6.2-15.5c2.8-5,6.3-9.5,10.4-13.7c4.6-4.7,9.7-8.6,15.5-11.8c5.8-3.2,11.9-5.1,18.3-5.8c6.4-0.7,13,0.2,19.7,2.5
		c6.7,2.3,13.2,6.7,19.5,13.1c3.8,3.9,6.8,7.8,8.8,11.8c2,3.9,3.4,8,4.1,12.1c0.7,4.2,0.9,8.4,0.5,12.7c-0.4,4.3-1.1,8.8-2.2,13.6
		c-1,3.9-2,7.8-3.1,11.6c-1.1,3.8-1.8,7.5-2.2,11.2s-0.1,7.2,0.7,10.7c0.8,3.4,2.8,6.7,5.8,9.7L272.9,335
		C267,329,262.6,322.6,259.9,315.9z M315.2,377.5l-24.9-25.4l20-20.4l24.9,25.4L315.2,377.5z"/>
</g>
<g id="Layer_2">
	<polygon class="st2" points="136.9,497.3 21.5,287.5 99.8,210.8 315.4,272.6 342.9,379.7 	"/>
	<path class="st2" d="M346.8,138l-28-28.5c-37.5,30.6-99.4,26-119.9,7.6c0,0,10.8,26.8,62.7,31.5c-35.6,5.3-56.6-6.2-64.9-16
		c-1,10.8-0.2,19.5,2.9,30.2c10.7,6.8,57.5,20.9,81.4,4.1c-5.7,16-55,27.6-70.3,24.6c25.7,45.8,80.8,67.7,105,64.5
		C359.5,199,346.8,138,346.8,138z"/>
	<path class="st2" d="M430.7,4.3l-101.1,103c6.7,6.8,13.1,13.3,20.3,20.6l101.1-103c2.8-2.8,4.2-6.6,4.2-10.3s-1.4-7.5-4.2-10.3
		C445.4-1.4,436.3-1.4,430.7,4.3z"/>
	<path class="st2" d="M117.4,104.6c-24.9,0-45,20.5-45,45.9v0v0c0-25.3-20.2-45.9-45-45.9h0h0c24.9,0,45-20.5,45-45.9v0v0
		C72.3,84.1,92.5,104.6,117.4,104.6L117.4,104.6L117.4,104.6z"/>
	<path class="st2" d="M154.3,155.3c-17.8,0-32.3,14.7-32.3,32.9v0v0c0-18.2-14.5-32.9-32.3-32.9h0h0c17.8,0,32.3-14.7,32.3-32.9v0v0
		C122,140.6,136.5,155.3,154.3,155.3L154.3,155.3L154.3,155.3z"/>
	<path class="st2" d="M76.8,192.8c-14,0-25.4,11.6-25.4,25.9v0v0c0-14.3-11.4-25.9-25.4-25.9h0h0c14,0,25.4-11.6,25.4-25.9v0v0
		C51.4,181.2,62.8,192.8,76.8,192.8L76.8,192.8L76.8,192.8z"/>
</g>
<g id="Layer_3" class="st0">
	<path class="st1" d="M175.9,265.8c22.6,0,49.3,6.2,70.8,11.3c13.1,3.1,26.6,6.2,32.6,6.2c0.2,0,0.5,0,0.7,0
		c4.5-0.4,13.7-3.4,22.7-6.2c15.5-5,33.2-10.6,47.6-10.6c19.4,0,27.3,10.4,30.3,16.6l0.3,0.6l0.2,0.6c2.9,7.6,2.5,15.6-1.1,23.2
		c-0.8,1.8-1.9,3.5-3,5.1l30.6-31.2c4.2-4.9,8.8-9.8,13.7-14l71.5-72.9L427.3,80.9H160.6L95.2,194.5l70.5,71.8
		C168.9,266,172.3,265.8,175.9,265.8z"/>
	<g class="st3">
		<path class="st2" d="M67,417.6c0,0,11.1-10.3,39.4-17.2c22.8,2.5,79.5,7.7,123,14.9c17.8,4.8,66.7,1.9,79.2-0.3
			c34.7-6.3,96.7-40.4,131.6-84.4c16.2-23.1,25.7-51.5,27.8-59.9c-19.1-23.6-64.6,44-64.6,44s-40.3,29.3-81.1,40.9
			c-20.8-8.2-61.9-7.6-61.9-7.6s27.1-8.7,48.7-15.2c30.4-9.1,65.3-29.4,58.8-46.2c-9.9-20.6-71.3,8-91.5,9.8
			c-20.2,1.8-101.5-26.9-136.9-15.5c-13.1,4.2-34,22.9-53.4,33.8c-41.4,11.5-78.5,18.6-78.5,18.6S-14.2,417.6,67,417.6z"/>
	</g>
</g>
<g id="Layer_4" class="st0">
	<polygon class="st1" points="237.5,423.8 56.1,239 115.8,135.3 359.2,135.3 418.9,239 	"/>
	<path class="st1" d="M381.4,43.2c-15.8,19.6-13.1,48.5,6.1,64.6l0,0l0,0c-19.2-16.1-47.6-13.3-63.4,6.2l0,0l0,0
		c15.8-19.6,13.1-48.5-6.1-64.6l0,0l0,0C337.2,65.5,365.6,62.8,381.4,43.2L381.4,43.2L381.4,43.2z"/>
	<path class="st1" d="M444.2,42.3c-11,14.3-8.5,35,5.6,46.2v0v0c-14-11.2-34.3-8.7-45.3,5.7v0v0c11-14.3,8.5-35-5.6-46.2l0,0l0,0
		C413,59.2,433.3,56.7,444.2,42.3L444.2,42.3L444.2,42.3z"/>
	<path class="st1" d="M426.6,133.5c-9.3,10.7-8.3,27,2.1,36.5l0,0l0,0c-10.5-9.5-26.5-8.5-35.8,2.2l0,0l0,0
		c9.3-10.7,8.3-27-2.1-36.5l0,0l0,0C401.3,145.2,417.3,144.2,426.6,133.5L426.6,133.5L426.6,133.5z"/>
	<path class="st1" d="M92.1,43.2c15.8,19.6,13.1,48.5-6.1,64.6l0,0l0,0c19.2-16.1,47.6-13.3,63.4,6.2l0,0l0,0
		c-15.8-19.6-13.1-48.5,6.1-64.6l0,0l0,0C136.3,65.5,107.9,62.8,92.1,43.2L92.1,43.2L92.1,43.2z"/>
	<path class="st1" d="M29.2,42.3c11,14.3,8.5,35-5.6,46.2l0,0l0,0c14-11.2,34.3-8.7,45.3,5.7l0,0l0,0c-11-14.3-8.5-35,5.6-46.2l0,0
		l0,0C60.5,59.2,40.2,56.7,29.2,42.3L29.2,42.3L29.2,42.3z"/>
	<path class="st1" d="M46.8,133.5c9.3,10.7,8.3,27-2.1,36.5l0,0l0,0c10.5-9.5,26.5-8.5,35.8,2.2l0,0l0,0c-9.3-10.7-8.3-27,2.1-36.5
		l0,0l0,0C72.2,145.2,56.1,144.2,46.8,133.5L46.8,133.5L46.8,133.5z"/>
	<path class="st1" d="M39.2,328.4c24.9-0.1,45.1,20.3,45.2,45.7v0v0c-0.1-25.3,19.9-46,44.8-46.1h0h0c-24.9,0.1-45.1-20.3-45.2-45.7
		v0v0C84.1,307.6,64,328.3,39.2,328.4L39.2,328.4L39.2,328.4z"/>
	<path class="st1" d="M91.6,367.5c17.8,0.5,31.9,15.5,31.5,33.7v0v0c0.4-18.2,15.3-32.5,33.1-32.1h0h0
		c-17.8-0.5-31.9-15.5-31.5-33.7v0v0C124.2,353.6,109.4,367.9,91.6,367.5L91.6,367.5L91.6,367.5z"/>
	<path class="st1" d="M40.8,400c14-0.4,25.7,10.9,26.1,25.1v0v0c-0.4-14.3,10.7-26.2,24.7-26.6h0h0c-14,0.4-25.7-10.9-26.1-25.1v0v0
		C65.9,387.7,54.9,399.6,40.8,400L40.8,400L40.8,400z"/>
	<path class="st1" d="M434.6,328.4c-24.9-0.1-45.1,20.3-45.2,45.7v0v0c0.1-25.3-19.9-46-44.8-46.1h0h0c24.9,0.1,45.1-20.3,45.2-45.7
		v0v0C389.6,307.6,409.7,328.3,434.6,328.4L434.6,328.4L434.6,328.4z"/>
	<path class="st1" d="M382.1,367.5c-17.8,0.5-31.9,15.5-31.5,33.7v0v0c-0.4-18.2-15.3-32.5-33.1-32.1h0h0
		c17.8-0.5,31.9-15.5,31.5-33.7v0v0C349.5,353.6,364.3,367.9,382.1,367.5L382.1,367.5L382.1,367.5z"/>
	<path class="st1" d="M432.9,400c-14-0.4-25.7,10.9-26.1,25.1v0v0c0.4-14.3-10.7-26.2-24.7-26.6h0h0c14,0.4,25.7-10.9,26.1-25.1v0v0
		C407.8,387.7,418.9,399.6,432.9,400L432.9,400L432.9,400z"/>
	<rect x="137.6" y="443.3" class="st1" width="199.9" height="15.1"/>
</g>
</svg>
