<?xml version="1.0" encoding="utf-8"?>
<!-- Generator: Adobe Illustrator 19.2.0, SVG Export Plug-In . SVG Version: 6.00 Build 0)  -->
<svg version="1.1" id="Layer_1" xmlns="http://www.w3.org/2000/svg" xmlns:xlink="http://www.w3.org/1999/xlink" x="0px" y="0px"
	 viewBox="0 0 184.3 141.7" enable-background="new 0 0 184.3 141.7" xml:space="preserve">
<g>
	<path fill="#A49673" d="M104,61.7c-3.5,2.4-7.8,3.9-12.4,3.9c-12.2,0-22-9.9-22-22c0-12.2,9.9-22,22-22c12.2,0,22,9.9,22,22
		c0,4.6-1.4,8.9-3.9,12.4l9.7,9.7l22.4-22.4L125.3,15H57.8L41.2,43.2l50.3,50.3l22.1-22.1L104,61.7z"/>
	<path fill="#A49673" d="M91.5,27.2c-9,0-16.3,7.3-16.3,16.3s7.3,16.3,16.3,16.3s16.3-7.3,16.3-16.3S100.5,27.2,91.5,27.2z
		 M91.5,33.2c-5.7,0-10.4,4.6-10.4,10.4h-3c0-7.4,6-13.3,13.3-13.3V33.2z"/>
</g>
<g>
	<path fill="#A49673" d="M17.9,104.3h-5.7v14.7H9.5v-14.7H3.8v-2.4h14.1V104.3z"/>
	<path fill="#A49673" d="M20.1,118.9v-17h2.7v17H20.1z"/>
	<path fill="#A49673" d="M29.4,106.9v12h-2.7v-17h2.1l9.7,12.3v-12.3h2.7v17H39L29.4,106.9z"/>
	<path fill="#A49673" d="M57,116.8c-1.4,1.5-3.1,2.2-5,2.2c-1.1,0-2.2-0.2-3.2-0.7s-1.8-1.1-2.5-1.9s-1.3-1.7-1.7-2.8
		s-0.6-2.2-0.6-3.3c0-1.2,0.2-2.2,0.6-3.3s1-2,1.7-2.7c0.7-0.8,1.6-1.4,2.6-1.9c1-0.5,2.1-0.7,3.2-0.7c1.6,0,3,0.3,4.1,1
		c1.1,0.7,1.9,1.6,2.5,2.7l-2.1,1.5c-0.5-0.9-1.1-1.6-1.9-2.1s-1.7-0.7-2.7-0.7c-0.8,0-1.5,0.2-2.2,0.5c-0.7,0.3-1.2,0.8-1.7,1.4
		c-0.5,0.6-0.8,1.2-1.1,2s-0.4,1.5-0.4,2.4c0,0.9,0.1,1.7,0.4,2.4s0.7,1.4,1.2,2c0.5,0.6,1.1,1,1.7,1.3c0.7,0.3,1.4,0.5,2.2,0.5
		c0.9,0,1.7-0.2,2.5-0.6c0.8-0.4,1.5-1,2.3-1.9v-1.8h-3.6v-2h5.8v8.6H57V116.8z"/>
	<path fill="#A49673" d="M62.3,118.9v-17h11.3v2.4H65v5.1h7.2v2.2H65v7.3H62.3z"/>
	<path fill="#A49673" d="M76.2,118.9v-17h2.7v17H76.2z"/>
	<path fill="#A49673" d="M85.4,106.9v12h-2.7v-17h2.1l9.7,12.3v-12.3h2.7v17h-2.2L85.4,106.9z"/>
	<path fill="#A49673" d="M101.1,118.9v-17h6c1.4,0,2.6,0.2,3.6,0.7c1,0.4,1.9,1.1,2.6,1.8c0.7,0.8,1.2,1.7,1.6,2.7
		c0.4,1,0.5,2.1,0.5,3.3c0,1.3-0.2,2.5-0.6,3.5c-0.4,1-0.9,1.9-1.7,2.7c-0.7,0.7-1.6,1.3-2.6,1.7c-1,0.4-2.2,0.6-3.4,0.6H101.1z
		 M112.8,110.4c0-0.9-0.1-1.7-0.4-2.5c-0.2-0.8-0.6-1.4-1.1-1.9c-0.5-0.5-1.1-1-1.8-1.3s-1.5-0.5-2.4-0.5h-3.4v12.3h3.4
		c0.9,0,1.7-0.2,2.4-0.5c0.7-0.3,1.3-0.7,1.8-1.3c0.5-0.6,0.8-1.2,1.1-2S112.8,111.3,112.8,110.4z"/>
	<path fill="#A49673" d="M130,116.6v2.4h-11.7v-17h11.5v2.4H121v4.8h7.6v2.2H121v5.2H130z"/>
	<path fill="#A49673" d="M132.8,118.9v-17h7.4c0.8,0,1.5,0.2,2.1,0.5c0.6,0.3,1.2,0.7,1.7,1.3s0.8,1.1,1.1,1.8
		c0.3,0.7,0.4,1.3,0.4,2c0,0.6-0.1,1.1-0.2,1.7c-0.2,0.5-0.4,1-0.7,1.5c-0.3,0.4-0.6,0.8-1.1,1.2c-0.4,0.3-0.9,0.6-1.4,0.7l4,6.5h-3
		l-3.7-5.9h-3.9v5.9H132.8z M135.5,110.6h4.7c0.4,0,0.7-0.1,1-0.3c0.3-0.2,0.6-0.4,0.8-0.7s0.4-0.6,0.5-1c0.1-0.4,0.2-0.8,0.2-1.2
		s-0.1-0.8-0.2-1.2c-0.2-0.4-0.4-0.7-0.6-1c-0.2-0.3-0.5-0.5-0.9-0.7s-0.7-0.3-1-0.3h-4.6V110.6z"/>
	<path fill="#A49673" d="M160.3,116.6v2.4h-11.7v-17h11.5v2.4h-8.8v4.8h7.6v2.2h-7.6v5.2H160.3z"/>
	<path fill="#A49673" d="M165.8,106.9v12h-2.7v-17h2.1l9.7,12.3v-12.3h2.7v17h-2.2L165.8,106.9z"/>
</g>
</svg>
