<?xml version="1.0" encoding="utf-8"?>
<!-- Generator: Adobe Illustrator 19.2.0, SVG Export Plug-In . SVG Version: 6.00 Build 0)  -->
<svg version="1.1" id="Layer_1" xmlns="http://www.w3.org/2000/svg" xmlns:xlink="http://www.w3.org/1999/xlink" x="0px" y="0px"
	 viewBox="0 0 100 100" enable-background="new 0 0 100 100" xml:space="preserve">
<g id="Layer_4">
	<path fill="#EAAA28" d="M60.7,38.2c0-3.1-1.6-7-5.1-9.7c-0.7-0.5-1-1.3-1.2-2.2c0-8.7-0.1-22.4-0.1-23.3c-0.7-0.3-3.2-0.3-4.2-0.3
		l0,0c0,0-0.1,0-0.2,0c-0.1,0-0.2,0-0.2,0l0,0c-0.9,0-3.5,0.1-4.2,0.3c0,0.9,0,14.6,0,23.3c-0.2,0.8-0.6,1.6-1.3,2.2
		c-3.5,2.7-5.1,6.6-5.1,9.7c0,6-0.4,52.2-0.3,54.4c0,2.7,0.6,4.3,10.7,4.6v0c0.1,0,0.2,0,0.3,0c0.1,0,0.2,0,0.3,0v0
		C60.4,97,61,95.3,61,92.6C61.1,90.4,60.7,44.2,60.7,38.2z M44.3,38.3c0.1,3.3,0.2,54,0.2,55.8c-4.3,0-3.6-2.1-3.6-2.1
		s0.6-50,0.6-53.6c0-3.6,5.6-8.1,5.6-8.1S44.2,35,44.3,38.3z"/>
</g>
</svg>
